<?xml version="1.0" encoding="UTF-8"?>
<svg xmlns="http://www.w3.org/2000/svg" viewBox="0 0 400 224" width="400" height="224">
<path d="M384.01 70.33C384.01 98.56 384.01 126.78 384.01 155C382.43 162.4 379.27 166.89 372 169.36C258.33 169.35 144.67 169.35 31 169.34C24.72 167.48 20.7 163.67 19.05 157.28C19.05 127.56 19.05 97.83 19.05 68.1C23.6 54.65 32.95 56.06 45.17 56.06C62.61 56.06 80.06 56.06 97.5 56.06C170.06 56.06 242.61 56.06 315.17 56.06C328.61 56.06 342.06 56.06 355.5 56.06C369.48 56.06 380.25 54.11 384.01 70.33ZM277.22 136.96C278.08 140.86 287.83 149.97 291.69 151.11C292.61 152.86 296.78 154.17 298.6 154.88C306.06 157.83 314.95 159.06 322.85 157.41C345.92 152.59 363.27 132.88 361.02 108.5C360.51 103.05 359.19 93.97 354.92 90.03C354.17 86.47 344.59 75.53 341.01 75C339.55 72.84 335.83 71.68 333.53 70.64C324.84 66.75 315.12 66.16 305.83 67.99C281.56 72.75 265.46 97.97 270.83 122.01C271.96 127.06 273.67 133.05 277.22 136.96ZM238.6 80.5C231.37 81.71 233.03 92.65 240.17 91.71C247.61 90.73 246.18 79.23 238.6 80.5ZM82.24 108.5C88.14 101.38 92.88 106.5 97.4 103.86C99.18 102.83 98.98 95.48 97.8 94.03C96.36 92.28 92.18 93.11 90.17 93.12C81.12 93.17 73.03 98.1 69.17 106.32C67.9 109.02 64.98 116.26 67.27 118.89C71.29 123.52 91.76 113.86 85 126.5C84.4 127.62 83.5 128.86 82.59 129.75C75.01 137.2 57.66 135.84 54.23 124.57C53.27 121.44 53.75 110.28 51.65 109.2C50.53 108.62 48.72 108.96 47.5 108.95C46.2 108.95 44.32 108.63 43.18 109.33C41.02 110.67 41.42 113.68 41.42 115.83C41.4 121.66 42.19 127.22 45.24 132.25C54.16 146.95 75.72 148.85 88.78 138.95C95.55 133.82 98.63 125.82 98.7 117.5C98.71 115.4 99.29 112.2 98.16 110.33C96.17 107.01 85.3 110.89 82.24 108.5ZM112.25 93.44C108.13 94.29 109.31 100.15 109.31 103.17C109.31 113.1 109.94 123.26 109.27 133.17C109.18 134.5 108.95 136.09 107.63 136.79C104.8 138.3 100.98 136.13 98.3 138.14C95.69 140.09 96.28 147.27 99.69 148.15C101.61 148.65 104.2 148.4 106.17 148.26C124.4 146.99 120.26 124.88 120.26 112.17C120.26 107.88 121.39 99.29 119.97 95.52C118.94 92.78 114.58 92.96 112.25 93.44ZM164.83 121.29C163.03 116.95 165.25 109.92 162.9 104.24C157.97 92.33 141.55 89.99 132.51 98.34C122.48 107.61 125.59 125.06 137.74 130.78C142.64 133.09 147.91 131.1 152.82 132.5C152.94 135.33 149.26 137.14 146.83 137.28C140.95 137.61 134.89 135.03 134.98 143.17C134.99 144.28 134.82 145.71 135.48 146.68C137.13 149.09 141.02 148.29 143.5 148.29C150.81 148.29 157.66 146.6 161.79 139.95C163.11 137.82 163.29 134.17 164.83 132.5C169.91 131.04 181.09 132.22 186.83 132.22C202.61 132.22 218.39 132.22 234.17 132.22C239.05 132.22 255.34 133.96 257.78 129.61C259.31 126.88 258.42 122.19 258.42 119.17C258.42 111.89 258.76 105.25 253.69 99.48C244.97 89.53 227.71 91.96 222.25 104.1C219.53 110.14 221.65 115.3 221.83 121.29C202.83 121.29 183.83 121.29 164.83 121.29ZM153.17 120.97C151.76 121.56 150.02 121.3 148.5 121.3C146.52 121.3 144.29 121.59 142.41 120.77C136.81 118.31 135.88 110.1 140.34 106.17C144.2 102.78 150.56 103.99 152.79 108.73C153.77 110.84 153.49 113.59 153.48 115.83C153.48 117.28 153.98 119.81 153.17 120.97ZM247.31 120.83C245.96 121.65 244.04 121.3 242.5 121.3C240.51 121.29 238.29 121.57 236.42 120.77C230.81 118.37 229.89 110.05 234.33 106.16C243.94 97.73 250.02 113.03 247.31 120.83ZM61.27 146.14C53.61 147.8 57.39 159.45 64.76 156.9C71.56 154.55 68.11 144.66 61.27 146.14ZM76.21 146.1C68.59 147.59 72 159.18 79.47 156.94C86.34 154.88 83.1 144.76 76.21 146.1Z" fill="#fed601" fill-rule="evenodd" stroke="#fed601" stroke-width="0.25" stroke-linejoin="round"/>
<path d="M341.01 75C344.59 75.53 354.17 86.47 354.92 90.03C354.23 91.44 354.25 93.08 353.76 94.57C351.81 100.52 348.43 108.58 343.5 112.65C339.16 112.17 342.78 106.44 341.74 103.83C338.6 103.37 332.5 105.77 330.03 103.5C329.7 100.24 334.16 96.07 335.79 93.27C340.22 85.66 340.03 83.34 341.01 75ZM238.6 80.5C246.18 79.23 247.61 90.73 240.17 91.71C233.03 92.65 231.37 81.71 238.6 80.5ZM82.24 108.5C85.3 110.89 96.17 107.01 98.16 110.33C99.29 112.2 98.71 115.4 98.7 117.5C98.63 125.82 95.55 133.82 88.78 138.95C75.72 148.85 54.16 146.95 45.24 132.25C42.19 127.22 41.4 121.66 41.42 115.83C41.42 113.68 41.02 110.67 43.18 109.33C44.32 108.63 46.2 108.95 47.5 108.95C48.72 108.96 50.53 108.62 51.65 109.2C53.75 110.28 53.27 121.44 54.23 124.57C57.66 135.84 75.01 137.2 82.59 129.75C83.5 128.86 84.4 127.62 85 126.5C91.76 113.86 71.29 123.52 67.27 118.89C64.98 116.26 67.9 109.02 69.17 106.32C73.03 98.1 81.12 93.17 90.17 93.12C92.18 93.11 96.36 92.28 97.8 94.03C98.98 95.48 99.18 102.83 97.4 103.86C92.88 106.5 88.14 101.38 82.24 108.5ZM112.25 93.44C114.58 92.96 118.94 92.78 119.97 95.52C121.39 99.29 120.26 107.88 120.26 112.17C120.26 124.88 124.4 146.99 106.17 148.26C104.2 148.4 101.61 148.65 99.69 148.15C96.28 147.27 95.69 140.09 98.3 138.14C100.98 136.13 104.8 138.3 107.63 136.79C108.95 136.09 109.18 134.5 109.27 133.17C109.94 123.26 109.31 113.1 109.31 103.17C109.31 100.15 108.13 94.29 112.25 93.44ZM164.83 121.29C183.83 121.29 202.83 121.29 221.83 121.29C221.65 115.3 219.53 110.14 222.25 104.1C227.71 91.96 244.97 89.53 253.69 99.48C258.76 105.25 258.42 111.89 258.42 119.17C258.42 122.19 259.31 126.88 257.78 129.61C255.34 133.96 239.05 132.22 234.17 132.22C218.39 132.22 202.61 132.22 186.83 132.22C181.09 132.22 169.91 131.04 164.83 132.5C163.29 134.17 163.11 137.82 161.79 139.95C157.66 146.6 150.81 148.29 143.5 148.29C141.02 148.29 137.13 149.09 135.48 146.68C134.82 145.71 134.99 144.28 134.98 143.17C134.89 135.03 140.95 137.61 146.83 137.28C149.26 137.14 152.94 135.33 152.82 132.5C147.91 131.1 142.64 133.09 137.74 130.78C125.59 125.06 122.48 107.61 132.51 98.34C141.55 89.99 157.97 92.33 162.9 104.24C165.25 109.92 163.03 116.95 164.83 121.29ZM153.17 120.97C153.98 119.81 153.48 117.28 153.48 115.83C153.49 113.59 153.77 110.84 152.79 108.73C150.56 103.99 144.2 102.78 140.34 106.17C135.88 110.1 136.81 118.31 142.41 120.77C144.29 121.59 146.52 121.3 148.5 121.3C150.02 121.3 151.76 121.56 153.17 120.97ZM247.31 120.83C250.02 113.03 243.94 97.73 234.33 106.16C229.89 110.05 230.81 118.37 236.42 120.77C238.29 121.57 240.51 121.29 242.5 121.3C244.04 121.3 245.96 121.65 247.31 120.83ZM291.69 151.11C287.83 149.97 278.08 140.86 277.22 136.96C280.3 136.11 283.92 136.81 287.25 135.78C296.42 132.93 306.75 126.56 313.33 119.5C312.43 116.78 308.49 115.53 308.41 112.5C310.73 109.91 325.05 110.11 329.17 109.74C330.89 109.58 334.12 108.5 335.67 109.5C337.3 110.58 336.14 114.27 335.98 115.83C335.5 120.85 334.54 125.82 334.08 130.83C333.9 132.85 334.13 135.6 332.5 137.03C329.91 137.16 328.18 134.28 326.5 132.55C323.45 133.07 316.76 139.81 313.67 141.82C306.79 146.31 299.71 149.34 291.69 151.11ZM61.27 146.14C68.11 144.66 71.56 154.55 64.76 156.9C57.39 159.45 53.61 147.8 61.27 146.14ZM76.21 146.1C83.1 144.76 86.34 154.88 79.47 156.94C72 159.18 68.59 147.59 76.21 146.1Z" fill="#016c98" fill-rule="evenodd" stroke="#016c98" stroke-width="0.25" stroke-linejoin="round"/>
<path d="M341.01 75C340.03 83.34 340.22 85.66 335.79 93.27C334.16 96.07 329.7 100.24 330.03 103.5C332.5 105.77 338.6 103.37 341.74 103.83C342.78 106.44 339.16 112.17 343.5 112.65C348.43 108.58 351.81 100.52 353.76 94.57C354.25 93.08 354.23 91.44 354.92 90.03C359.19 93.97 360.51 103.05 361.02 108.5C363.27 132.88 345.92 152.59 322.85 157.41C314.95 159.06 306.06 157.83 298.6 154.88C296.78 154.17 292.61 152.86 291.69 151.11C299.71 149.34 306.79 146.31 313.67 141.82C316.76 139.81 323.45 133.07 326.5 132.55C328.18 134.28 329.91 137.16 332.5 137.03C334.13 135.6 333.9 132.85 334.08 130.83C334.54 125.82 335.5 120.85 335.98 115.83C336.14 114.27 337.3 110.58 335.67 109.5C334.12 108.5 330.89 109.58 329.17 109.74C325.05 110.11 310.73 109.91 308.41 112.5C308.49 115.53 312.43 116.78 313.33 119.5C306.75 126.56 296.42 132.93 287.25 135.78C283.92 136.81 280.3 136.11 277.22 136.96C273.67 133.05 271.96 127.06 270.83 122.01C265.46 97.97 281.56 72.75 305.83 67.99C315.12 66.16 324.84 66.75 333.53 70.64C335.83 71.68 339.55 72.84 341.01 75ZM19.05 68.1C19.05 97.83 19.05 127.56 19.05 157.28C17.3 155.11 18.33 142.33 18.33 138.83C18.33 121.94 18.33 105.06 18.33 88.17C18.33 83.39 18.33 78.61 18.33 73.83C18.33 72.28 18.09 69.14 19.05 68.1ZM384.01 70.33C384.01 98.56 384.01 126.78 384.01 155C384.01 126.78 384.01 98.56 384.01 70.33ZM31 169.34C144.67 169.35 258.33 169.35 372 169.36C369.94 171.01 357.16 170 353.83 170C336.94 170 320.06 170 303.17 170C237.61 170 172.06 170 106.5 170C87.94 170 69.39 170 50.83 170C46.06 170 41.28 170 36.5 170C34.77 170 32.36 170.48 31 169.34Z" fill="#ffffff" fill-rule="evenodd" stroke="#ffffff" stroke-width="0.25" stroke-linejoin="round"/>
</svg>