<?xml version="1.0" encoding="UTF-8"?>
<svg xmlns="http://www.w3.org/2000/svg" viewBox="0 0 824 199" width="824" height="199">
<path d="M127.93 0.06C138.88 0.06 149.84 0.06 160.79 0.06C160.61 5.73 161.94 24.06 160.62 28.08C159.86 30.39 156.9 32.5 155.3 34.24C151.3 38.61 147.34 43.03 143.3 47.36C132.81 58.58 122.68 70.11 112.21 81.34C108.22 85.63 104.58 90.52 100.23 94.45C114.81 128.77 129.4 163.09 143.99 197.41C141.59 199.2 134.86 198 131.79 198C123.29 198 114.78 198 106.28 198C102.77 198 97.86 198.86 94.61 197.59C85.19 175.82 75.77 154.05 66.36 132.28C62.76 133.9 55.93 143.22 52.82 146.51C41.73 158.24 31.14 170.42 20.09 182.18C17.38 185.06 8.28 196.48 5.67 197.77C4.57 198.32 2.84 198 1.66 197.87C1.13 197.46 0.6 197.04 0.06 196.63C0.06 140.57 0.06 84.51 0.06 28.45C12.61 28.52 25.15 28.58 37.7 28.65C38.01 51.27 38.32 73.88 38.63 96.5C68.4 64.35 98.16 32.21 127.93 0.06ZM446.9 28.16C446.9 43.99 446.9 59.82 446.9 75.65C449.44 75.14 456.23 68.71 459.84 67.1C471.57 61.85 485.49 59.88 498.07 64.09C502.62 65.61 506.78 67.48 510.8 70.14C529.43 82.48 530.77 103.9 531.11 124.39C531.29 135.11 531.23 145.84 531.42 156.56C531.58 165.8 531.55 175.03 531.51 184.28C531.49 188.25 532.42 193.74 531.03 197.44C518.47 197.44 505.9 197.44 493.33 197.44C491.74 192.51 492.94 180.7 493 175.04C493.15 158.66 492.93 142.25 492.96 125.87C492.99 111.27 488.39 97.84 471.52 97.47C468.68 97.41 465.32 97.94 462.68 98.83C446.57 104.24 447.11 116.45 447.12 131.42C447.13 147.07 446.95 162.72 446.92 178.37C446.91 183.24 448.13 193.59 446.31 197.83C433.93 197.83 421.56 197.83 409.18 197.83C408.14 193.63 408.84 188.6 408.84 184.28C408.84 175.29 408.84 166.29 408.84 157.3C408.84 128.58 408.85 99.87 408.84 71.16C408.84 60.81 408.84 50.46 408.84 40.11C408.84 36.73 407.65 30.43 409.41 27.55C418.01 26.46 427.35 27.45 436.03 27.45C439.29 27.45 444.02 26.57 446.9 28.16ZM390.52 89.65C383.29 93.36 376.02 97.11 369.01 101.18C366.55 102.6 362.35 106.1 359.49 106.29C357.37 106.43 355.03 101.88 353.58 100.56C349.06 96.43 342.8 94.63 336.95 96.84C334.87 97.62 331.17 99.2 331.01 101.86C330.78 105.64 334.23 107.79 337.26 109.16C343.56 112 350.77 112.55 357.16 115.13C362.93 117.46 369.16 118.83 374.61 122.02C388.1 129.92 396 144.12 393.24 159.87C392.52 164 391.75 167.87 389.91 171.67C386.43 178.83 380.66 186.16 373.33 189.8C353.48 199.65 322.34 200.84 303.4 187.74C295.53 182.3 290.24 175.37 285.39 167.28C287.37 164.62 291.7 163.28 294.52 161.64C301.14 157.81 311.55 150.36 318.47 148.18C319.58 149.81 320.21 151.83 321.3 153.53C324.45 158.42 330.8 162.45 336.59 162.73C341.56 162.96 358.8 161.26 352.84 152.31C349.41 147.16 331.97 143.82 325.87 141.86C303.41 134.63 285.72 119.09 292.09 92.96C299.82 61.18 343.94 55.18 368.78 68.73C376.31 72.83 388.13 80.8 390.52 89.65ZM237.14 75.05C237.56 71.99 237.97 68.93 238.38 65.87C250.93 65.87 263.48 65.87 276.03 65.87C276.03 109.72 276.03 153.58 276.03 197.44C263.81 197.44 251.59 197.44 239.36 197.44C237.04 194.04 239.37 189.23 237.51 185.99C231.74 186.62 222.13 193.01 215.7 194.78C199.71 199.2 179.92 196.9 166.42 186.81C158.65 181 151.98 173.79 147.07 165.44C127.07 131.47 142.05 77.95 180.95 65.06C193.81 60.8 209.2 60.55 221.75 66.03C224.9 67.41 235.53 74.84 237.14 75.05ZM730.66 145.02C700.71 145.02 670.77 145.02 640.83 145.02C641.12 147.32 642.56 149.29 643.77 151.2C651.5 163.4 668.02 164.43 680.65 160.65C684.1 159.62 694.47 153.93 696.57 153.97C700.49 157.72 712.77 163.3 718.19 166.63C720.26 167.91 724.25 169 725.15 171.34C723.22 175.96 718.07 180.13 714.29 183.27C701.97 193.49 680.54 198.88 664.49 197.82C660.98 197.58 657.5 196.64 654.08 196.05C610.76 188.67 586.51 142.92 604.04 102.22C620.6 63.76 665.95 51.62 701.51 71.68C709.36 76.12 717.24 83.82 721.75 91.7C726.63 100.22 729.86 109.04 731.2 118.85C732.33 127.08 733.43 136.98 730.66 145.02ZM823.1 63.2C823.1 77.57 823.1 91.94 823.1 106.31C814.68 107.61 806.89 106.13 799.02 110.12C787.43 116.01 785.22 128.47 785.09 140.29C784.96 153.24 785.07 166.16 785.01 179.11C784.99 184.74 786.27 192.03 784.71 197.43C772.13 197.43 759.55 197.43 746.98 197.43C746.98 153.56 746.98 109.69 746.98 65.81C759.55 65.81 772.12 65.81 784.69 65.81C785.04 71.85 785.39 77.88 785.74 83.92C788 82.6 790.89 77.26 793.19 75.08C801.27 67.43 811.76 62.88 823.1 63.2ZM583.95 65.88C583.95 109.74 583.95 153.6 583.95 197.45C571.43 197.45 558.92 197.45 546.4 197.45C546.4 153.6 546.4 109.74 546.4 65.88C558.92 65.88 571.43 65.88 583.95 65.88ZM692.95 115.97C692.76 112.97 690.81 109.76 689.08 107.36C685.82 102.84 681.2 98.6 675.65 97.11C662 93.44 641.5 99.38 640.83 115.97C658.2 115.97 675.58 115.97 692.95 115.97ZM205.79 98.96C176.15 100.22 166.57 138.32 189.31 155.77C195.49 160.51 204.36 161.47 212.01 160.77C235.55 158.61 245.17 127.71 231.78 110C225.55 101.76 215.87 98.53 205.79 98.96Z" fill="#1dbcc2" fill-rule="evenodd" stroke="#1dbcc2" stroke-width="0.25" stroke-linejoin="round"/>
</svg>